<svg width="43" height="40" viewBox="0 0 43 40" fill="none" xmlns="http://www.w3.org/2000/svg">
<path d="M39.4248 13.3334C39.4422 13.2173 39.4422 13.0995 39.4248 12.9834V12.85C39.394 12.757 39.3519 12.6676 39.2993 12.5834C39.2761 12.5354 39.2459 12.4905 39.2097 12.45L39.0305 12.2334L38.8872 12.1334L38.6721 11.9834L22.5438 3.65005C22.2714 3.50377 21.9624 3.42676 21.6478 3.42676C21.3332 3.42676 21.0242 3.50377 20.7518 3.65005L4.62346 11.9834L4.46217 12.1L4.26505 12.2334C4.21299 12.2879 4.17064 12.3498 4.13961 12.4167C4.08227 12.4645 4.03383 12.5209 3.99624 12.5834C3.94971 12.6565 3.91357 12.7349 3.88872 12.8167C3.8787 12.8719 3.8787 12.9282 3.88872 12.9834C3.76551 13.0822 3.66233 13.2007 3.58408 13.3334V26.6667C3.5864 26.9637 3.67401 27.2547 3.83785 27.5096C4.00168 27.7646 4.23579 27.9742 4.51593 28.1167L20.6443 36.4501C20.7183 36.4902 20.7963 36.5237 20.8772 36.55H21.0564C21.3508 36.6165 21.658 36.6165 21.9524 36.55H22.1316L22.3825 36.4501L38.5108 28.1167C38.7877 27.972 39.0182 27.7615 39.1787 27.5067C39.3393 27.2519 39.4242 26.962 39.4248 26.6667V13.3334ZM21.5044 19.7834L9.0677 13.3334L14.0137 10.8L26.2533 17.3L21.5044 19.7834ZM21.5044 6.91672L33.9412 13.3334L29.927 15.4167L17.6874 8.90005L21.5044 6.91672ZM7.16815 16.1667L19.7124 22.7V32.1667L7.16815 25.6834V16.1667ZM23.2965 32.1667V22.7L28.6726 19.9V25L32.2566 23.3334V18.0334L35.8407 16.1834V25.6834L23.2965 32.1667Z" fill="#016BB2"/>
</svg>
