<svg width="44" height="40" viewBox="0 0 44 40" fill="none" xmlns="http://www.w3.org/2000/svg">
<path d="M36.0664 20V17.155C36.0664 9.75169 29.8319 3.55336 22.1691 3.33836C18.2195 3.25336 14.5512 4.56502 11.7467 7.09836C10.364 8.33723 9.26548 9.82374 8.51736 11.4682C7.76925 13.1127 7.38705 14.8811 7.39381 16.6667V20C5.41719 20 3.80974 21.495 3.80974 23.3334V30C3.80974 31.8384 5.41719 33.3334 7.39381 33.3334H10.9779V16.6667C10.9726 15.3275 11.259 14.0012 11.8199 12.7678C12.3807 11.5343 13.2044 10.4193 14.2412 9.49002C15.2736 8.55532 16.4982 7.82395 17.8416 7.33969C19.1851 6.85542 20.6198 6.62823 22.0598 6.67169C27.8087 6.83169 32.4823 11.535 32.4823 17.155V33.3334H36.0664C38.043 33.3334 39.6504 31.8384 39.6504 30V23.3334C39.6504 21.495 38.043 20 36.0664 20Z" fill="#016BB2"/>
<path d="M12.7699 20H16.354V33.3333H12.7699V20ZM27.1062 20H30.6903V33.3333H27.1062V20Z" fill="#016BB2"/>
</svg>
