<svg width="44" height="40" viewBox="0 0 44 40" fill="none" xmlns="http://www.w3.org/2000/svg">
<path d="M22.0221 3.3335C12.1408 3.3335 4.10175 10.8102 4.10175 20.0002C4.10175 29.1902 12.1408 36.6668 22.0221 36.6668C31.9034 36.6668 39.9425 29.1902 39.9425 20.0002C39.9425 10.8102 31.9034 3.3335 22.0221 3.3335ZM22.0221 33.3335C14.1174 33.3335 7.68582 27.3518 7.68582 20.0002C7.68582 12.6485 14.1174 6.66683 22.0221 6.66683C29.9268 6.66683 36.3584 12.6485 36.3584 20.0002C36.3584 27.3518 29.9268 33.3335 22.0221 33.3335Z" fill="#016BB2"/>
<path d="M18.4363 22.6451L14.3164 18.8201L11.786 21.1801L18.4398 27.3551L30.4572 16.1784L27.9233 13.8218L18.4363 22.6451Z" fill="#016BB2"/>
</svg>
