<svg width="44" height="40" viewBox="0 0 44 40" fill="none" xmlns="http://www.w3.org/2000/svg">
<path d="M34.8352 13.3334C34.5224 12.8296 34.0734 12.4107 33.5326 12.1183C32.9919 11.8259 32.3783 11.6703 31.7529 11.6667H27.3982V8.33341C27.3982 7.89139 27.2094 7.46746 26.8733 7.1549C26.5373 6.84234 26.0814 6.66675 25.6062 6.66675H7.68582C6.73526 6.66675 5.82364 7.01794 5.1515 7.64306C4.47935 8.26818 4.10175 9.11603 4.10175 10.0001V26.6667C4.10239 27.2513 4.2683 27.8254 4.58284 28.3315C4.89737 28.8376 5.34947 29.2578 5.89378 29.5501C5.82962 31.0972 6.4289 32.6046 7.55978 33.7408C8.69066 34.8769 10.2605 35.5487 11.924 35.6084C13.5875 35.6681 15.2083 35.1107 16.4299 34.059C17.6515 33.0072 18.3739 31.5472 18.438 30.0001H23.9933C24.1915 31.3946 24.9278 32.6746 26.0652 33.6018C27.2025 34.529 28.6634 35.0401 30.1759 35.0401C31.6883 35.0401 33.1492 34.529 34.2866 33.6018C35.4239 32.6746 36.1602 31.3946 36.3584 30.0001C37.3089 30.0001 38.2206 29.6489 38.8927 29.0238C39.5648 28.3986 39.9425 27.5508 39.9425 26.6667V21.6667C39.9396 21.3627 39.8533 21.0644 39.6916 20.8001L34.8352 13.3334ZM27.3982 15.0001H31.7529L34.9785 20.0001H27.3982V15.0001ZM12.1659 31.6667C11.6343 31.6667 11.1146 31.5201 10.6725 31.2454C10.2305 30.9707 9.88592 30.5803 9.68247 30.1235C9.47902 29.6666 9.42578 29.164 9.5295 28.679C9.63322 28.1941 9.88923 27.7486 10.2652 27.399C10.6411 27.0494 11.1201 26.8112 11.6415 26.7148C12.1629 26.6183 12.7034 26.6678 13.1946 26.857C13.6858 27.0463 14.1056 27.3667 14.4009 27.7778C14.6963 28.1889 14.854 28.6723 14.854 29.1667C14.854 29.8298 14.5708 30.4657 14.0666 30.9345C13.5625 31.4034 12.8788 31.6667 12.1659 31.6667ZM30.0863 31.6667C29.5546 31.6667 29.0349 31.5201 28.5929 31.2454C28.1508 30.9707 27.8063 30.5803 27.6028 30.1235C27.3994 29.6666 27.3461 29.164 27.4499 28.679C27.5536 28.1941 27.8096 27.7486 28.1855 27.399C28.5614 27.0494 29.0404 26.8112 29.5618 26.7148C30.0833 26.6183 30.6238 26.6678 31.1149 26.857C31.6061 27.0463 32.0259 27.3667 32.3213 27.7778C32.6167 28.1889 32.7743 28.6723 32.7743 29.1667C32.7743 29.8298 32.4911 30.4657 31.987 30.9345C31.4829 31.4034 30.7992 31.6667 30.0863 31.6667Z" fill="#016BB2"/>
</svg>
