<svg width="35" height="35" viewBox="0 0 35 35" fill="none" xmlns="http://www.w3.org/2000/svg">
<path d="M17.4986 10.7581C15.7101 10.7581 13.9949 11.4686 12.7303 12.7332C11.4657 13.9978 10.7552 15.713 10.7552 17.5015C10.7552 19.2899 11.4657 21.0051 12.7303 22.2697C13.9949 23.5343 15.7101 24.2448 17.4986 24.2448C19.287 24.2448 21.0022 23.5343 22.2668 22.2697C23.5315 21.0051 24.2419 19.2899 24.2419 17.5015C24.2419 15.713 23.5315 13.9978 22.2668 12.7332C21.0022 11.4686 19.287 10.7581 17.4986 10.7581ZM17.4986 21.8808C16.3367 21.8808 15.2224 21.4193 14.4009 20.5977C13.5793 19.7762 13.1177 18.6619 13.1177 17.5C13.1177 16.3381 13.5793 15.2238 14.4009 14.4023C15.2224 13.5807 16.3367 13.1192 17.4986 13.1192C18.6605 13.1192 19.7747 13.5807 20.5963 14.4023C21.4179 15.2238 21.8794 16.3381 21.8794 17.5C21.8794 18.6619 21.4179 19.7762 20.5963 20.5977C19.7747 21.4193 18.6605 21.8808 17.4986 21.8808Z" fill="#016BB2"/>
<path d="M24.5087 12.0823C25.377 12.0823 26.0808 11.3784 26.0808 10.5102C26.0808 9.64197 25.377 8.93813 24.5087 8.93813C23.6405 8.93813 22.9366 9.64197 22.9366 10.5102C22.9366 11.3784 23.6405 12.0823 24.5087 12.0823Z" fill="#016BB2"/>
<path d="M29.944 8.91188C29.6064 8.04006 29.0905 7.24833 28.4292 6.58738C27.768 5.92643 26.9761 5.41081 26.1042 5.07354C25.0838 4.69052 24.0059 4.48342 22.9163 4.46104C21.5119 4.39979 21.0671 4.38229 17.5058 4.38229C13.9446 4.38229 13.4881 4.38229 12.0954 4.46104C11.0066 4.48227 9.92945 4.68942 8.91043 5.07354C8.03825 5.41042 7.24613 5.9259 6.58488 6.5869C5.92362 7.2479 5.40785 8.03983 5.07064 8.91188C4.68754 9.93215 4.48091 11.0102 4.4596 12.0998C4.39689 13.5027 4.37793 13.9475 4.37793 17.5102C4.37793 21.0715 4.37793 21.525 4.4596 22.9206C4.48147 24.0115 4.6871 25.0877 5.07064 26.11C5.40879 26.9817 5.92507 27.7733 6.58648 28.4343C7.24789 29.0952 8.0399 29.6108 8.91189 29.9483C9.92898 30.3467 11.0066 30.5687 12.0983 30.6046C13.5027 30.6658 13.9475 30.6848 17.5088 30.6848C21.07 30.6848 21.5265 30.6848 22.9192 30.6046C24.0087 30.5824 25.0866 30.3758 26.1071 29.9935C26.9788 29.6555 27.7705 29.1394 28.4316 28.4783C29.0928 27.8172 29.6088 27.0255 29.9469 26.1538C30.3304 25.1329 30.5361 24.0567 30.5579 22.9658C30.6206 21.5629 30.6396 21.1181 30.6396 17.5554C30.6396 13.9927 30.6396 13.5406 30.5579 12.145C30.541 11.04 30.3332 9.9462 29.944 8.91188ZM28.1677 22.8127C28.1583 23.6532 28.0049 24.4858 27.7142 25.2744C27.4952 25.8415 27.1599 26.3565 26.7299 26.7862C26.2999 27.2159 25.7847 27.5509 25.2175 27.7696C24.4376 28.059 23.6139 28.2124 22.7821 28.2231C21.3967 28.2873 21.0058 28.3033 17.4533 28.3033C13.8979 28.3033 13.5348 28.3033 12.1231 28.2231C11.2918 28.213 10.4684 28.0595 9.68918 27.7696C9.11997 27.5523 8.60272 27.2179 8.17089 26.7881C7.73906 26.3582 7.40227 25.8426 7.1823 25.2744C6.89566 24.4942 6.74234 23.6714 6.72876 22.8404C6.66605 21.455 6.65147 21.0642 6.65147 17.5117C6.65147 13.9577 6.65147 13.5946 6.72876 12.1815C6.73819 11.3415 6.89159 10.5094 7.1823 9.72125C7.6271 8.57063 8.53855 7.665 9.68918 7.22459C10.4688 6.93604 11.2919 6.78266 12.1231 6.77104C13.51 6.70834 13.8994 6.69083 17.4533 6.69083C21.0073 6.69083 21.3719 6.69084 22.7821 6.77104C23.6139 6.78105 24.4378 6.93448 25.2175 7.22459C25.7847 7.44373 26.2998 7.77905 26.7298 8.209C27.1597 8.63896 27.495 9.15406 27.7142 9.72125C28.0008 10.5014 28.1541 11.3242 28.1677 12.1552C28.2304 13.5421 28.2465 13.9315 28.2465 17.4854C28.2465 21.0379 28.2465 21.42 28.1838 22.8142H28.1677V22.8127Z" fill="#016BB2"/>
</svg>
