<svg width="44" height="40" viewBox="0 0 44 40" fill="none" xmlns="http://www.w3.org/2000/svg">
<path d="M21.8761 25C18.5788 25 18.2921 23.5667 18.2921 23.3333H14.708C14.708 24.8667 15.8908 27.5833 20.0841 28.2V30H23.6682V28.2C27.2523 27.6333 29.0443 25.4833 29.0443 23.3333C29.0443 21.4667 28.1124 18.3333 21.8761 18.3333C18.2921 18.3333 18.2921 17.2833 18.2921 16.6667C18.2921 16.05 19.5465 15 21.8761 15C24.2058 15 24.3671 16.0667 24.385 16.6667H27.9691C27.9448 15.5313 27.5058 14.4373 26.7241 13.5649C25.9424 12.6925 24.8646 12.0936 23.6682 11.8667V10H20.0841V11.8167C16.5 12.3667 14.708 14.5167 14.708 16.6667C14.708 18.5333 15.6399 21.6667 21.8761 21.6667C25.4602 21.6667 25.4602 22.8 25.4602 23.3333C25.4602 23.8667 24.3492 25 21.8761 25Z" fill="#016BB2"/>
<path d="M9.33186 3.3335H3.95575V6.66683H7.53982V35.0002C7.53982 35.4422 7.72862 35.8661 8.0647 36.1787C8.40077 36.4912 8.85658 36.6668 9.33186 36.6668H34.4204C34.8956 36.6668 35.3514 36.4912 35.6875 36.1787C36.0236 35.8661 36.2124 35.4422 36.2124 35.0002V6.66683H39.7965V3.3335H9.33186ZM32.6283 33.3335H11.1239V6.66683H32.6283V33.3335Z" fill="#016BB2"/>
</svg>
