<svg width="24" height="24" viewBox="0 0 24 24" fill="none" xmlns="http://www.w3.org/2000/svg">
<path d="M20.487 14.1402L16.422 10.4442C16.2299 10.2696 15.9774 10.1764 15.7178 10.1845C15.4583 10.1925 15.212 10.3011 15.031 10.4872L12.638 12.9482C12.062 12.8382 10.904 12.4772 9.71201 11.2882C8.52001 10.0952 8.15901 8.93424 8.05201 8.36224L10.511 5.96824C10.6974 5.78737 10.8061 5.54106 10.8142 5.28145C10.8222 5.02183 10.7289 4.76928 10.554 4.57724L6.85901 0.513239C6.68405 0.320596 6.44089 0.203743 6.18116 0.187499C5.92143 0.171254 5.66561 0.256897 5.46801 0.426239L3.29801 2.28724C3.12512 2.46075 3.02193 2.69169 3.00801 2.93624C2.99301 3.18624 2.70701 9.10824 7.29901 13.7022C11.305 17.7072 16.323 18.0002 17.705 18.0002C17.907 18.0002 18.031 17.9942 18.064 17.9922C18.3085 17.9786 18.5393 17.8749 18.712 17.7012L20.572 15.5302C20.742 15.3333 20.8283 15.0776 20.8124 14.8179C20.7965 14.5582 20.6798 14.315 20.487 14.1402Z" fill="#090B10"/>
</svg>
