<svg width="18" height="28" viewBox="0 0 18 28" fill="none" xmlns="http://www.w3.org/2000/svg">
<path d="M8.99999 0.666748C4.40499 0.666748 0.666656 4.40508 0.666656 9.00008H3.99999C3.99999 6.24341 6.24332 4.00008 8.99999 4.00008C11.7567 4.00008 14 6.24341 14 9.00008C14 10.7817 13.2433 11.4417 11.5317 12.7584C10.895 13.2484 10.1767 13.8017 9.48832 14.4884C7.30166 16.6734 7.32499 18.8284 7.33332 19.0001V22.3334H10.6667V18.9851C10.6667 18.9451 10.705 17.9834 11.845 16.8451C12.3783 16.3117 12.9817 15.8484 13.5633 15.4001C15.33 14.0401 17.3333 12.5001 17.3333 9.00008C17.3333 4.40508 13.595 0.666748 8.99999 0.666748ZM7.33332 24.0001H10.6667V27.3334H7.33332V24.0001Z" fill="#090B10"/>
</svg>
