<svg width="44" height="40" viewBox="0 0 44 40" fill="none" xmlns="http://www.w3.org/2000/svg">
<path d="M17.396 20.0001C21.3492 20.0001 24.5642 17.0101 24.5642 13.3334C24.5642 9.65675 21.3492 6.66675 17.396 6.66675C13.4428 6.66675 10.2279 9.65675 10.2279 13.3334C10.2279 17.0101 13.4428 20.0001 17.396 20.0001ZM20.0841 21.6667H14.708C8.77812 21.6667 3.95575 26.1517 3.95575 31.6667V33.3334H30.8363V31.6667C30.8363 26.1517 26.0139 21.6667 20.0841 21.6667Z" fill="#016BB2"/>
<path d="M30.1267 18.4134C31.2181 16.6835 31.6895 14.6755 31.4725 12.68C31.1517 9.7067 29.3669 7.07836 26.4494 5.28003L24.4692 8.0567C26.4745 9.29336 27.6949 11.055 27.9064 13.0134C28.0039 13.9235 27.882 14.8425 27.5497 15.7033C27.2174 16.5642 26.683 17.3454 25.9853 17.99L23.8492 19.9767L26.7487 20.7684C34.3326 22.835 34.4204 29.9284 34.4204 30H38.0045C38.0045 27.0184 36.2913 21.1917 30.1267 18.4134Z" fill="#016BB2"/>
</svg>
