<svg width="40" height="40" viewBox="0 0 40 40" fill="none" xmlns="http://www.w3.org/2000/svg">
<path d="M20 3.33325C18.3518 3.33325 16.7407 3.82199 15.3702 4.73767C13.9998 5.65335 12.9317 6.95484 12.301 8.47756C11.6703 10.0003 11.5052 11.6758 11.8268 13.2923C12.1483 14.9088 12.942 16.3937 14.1074 17.5591C15.2729 18.7246 16.7577 19.5183 18.3742 19.8398C19.9908 20.1613 21.6663 19.9963 23.189 19.3656C24.7117 18.7349 26.0132 17.6667 26.9289 16.2963C27.8446 14.9259 28.3333 13.3148 28.3333 11.6666C28.3333 9.45645 27.4554 7.33683 25.8926 5.77403C24.3298 4.21123 22.2101 3.33325 20 3.33325ZM20 16.6666C19.0111 16.6666 18.0444 16.3733 17.2221 15.8239C16.3999 15.2745 15.759 14.4936 15.3806 13.58C15.0022 12.6664 14.9031 11.661 15.0961 10.6911C15.289 9.72123 15.7652 8.83031 16.4645 8.13105C17.1637 7.43179 18.0546 6.95559 19.0245 6.76266C19.9945 6.56973 20.9998 6.66875 21.9134 7.04719C22.827 7.42563 23.6079 8.06649 24.1573 8.88873C24.7068 9.71098 25 10.6777 25 11.6666C25 12.9927 24.4732 14.2644 23.5355 15.2021C22.5979 16.1398 21.3261 16.6666 20 16.6666ZM35 34.9999V33.3333C35 30.2391 33.7708 27.2716 31.5829 25.0837C29.395 22.8957 26.4275 21.6666 23.3333 21.6666H16.6667C13.5725 21.6666 10.605 22.8957 8.41709 25.0837C6.22916 27.2716 5 30.2391 5 33.3333V34.9999H8.33333V33.3333C8.33333 31.1231 9.21131 29.0035 10.7741 27.4407C12.3369 25.8779 14.4565 24.9999 16.6667 24.9999H23.3333C25.5435 24.9999 27.6631 25.8779 29.2259 27.4407C30.7887 29.0035 31.6667 31.1231 31.6667 33.3333V34.9999H35Z" fill="white"/>
</svg>
